<svg width="36" height="20" viewBox="0 0 36 20" fill="none" xmlns="http://www.w3.org/2000/svg">
<path d="M35.1818 0.838623H0.818182C0.366545 0.838623 0 1.31553 0 1.90314V4.03217C0 4.61978 0.366545 5.09669 0.818182 5.09669H35.1818C35.6335 5.09669 36 4.61978 36 4.03217V1.90314C36 1.31553 35.6335 0.838623 35.1818 0.838623Z" fill="#212121"/>
<path d="M34.3636 15.7419H1.63636C0.733091 15.7419 0 16.2188 0 16.8065V18.9355C0 19.5231 0.733091 20 1.63636 20H34.3636C35.2669 20 36 19.5231 36 18.9355V16.8065C36 16.2188 35.2669 15.7419 34.3636 15.7419Z" fill="#212121"/>
</svg>
