<svg width="32" height="35" viewBox="0 0 32 35" fill="none" xmlns="http://www.w3.org/2000/svg">
<path fill-rule="evenodd" clip-rule="evenodd" d="M21.1986 7.8135C21.5998 7.8135 21.9254 8.13809 21.9254 8.53803C21.9254 8.93797 21.5998 9.26256 21.1986 9.26256H14.1558C11.7255 9.26256 10.1547 10.928 10.1547 13.5073V21.3149C10.1547 23.928 11.6877 25.5509 14.1558 25.5509H22.4932C24.9235 25.5509 26.4943 23.8884 26.4943 21.3149V14.5149C26.4943 14.115 26.8199 13.7904 27.2211 13.7904C27.6223 13.7904 27.9479 14.115 27.9479 14.5149V21.3149C27.9479 24.7153 25.7559 27 22.4932 27H14.1558C10.8931 27 8.70117 24.7153 8.70117 21.3149V13.5073C8.70117 10.102 10.8931 7.8135 14.1558 7.8135H21.1986ZM23.2485 14.4114C23.5663 14.6567 23.6245 15.1117 23.3783 15.4276L20.5391 19.0793C20.4209 19.2319 20.2465 19.3314 20.0546 19.3546C19.8608 19.3807 19.6689 19.3246 19.5158 19.2058L16.7851 17.067L14.3325 20.2443C14.1891 20.4298 13.974 20.5273 13.756 20.5273C13.6009 20.5273 13.4449 20.4781 13.3131 20.3776C12.9953 20.1332 12.9352 19.6782 13.1804 19.3613L16.0807 15.6034C16.1989 15.4498 16.3743 15.3503 16.5661 15.3262C16.7619 15.3011 16.9537 15.3552 17.1059 15.4759L19.8385 17.6157L22.2291 14.5408C22.4752 14.223 22.9307 14.164 23.2485 14.4114ZM26.112 7C27.5403 7 28.7012 8.15731 28.7012 9.58126C28.7012 11.0052 27.5403 12.1635 26.112 12.1635C24.6846 12.1635 23.5227 11.0052 23.5227 9.58126C23.5227 8.15731 24.6846 7 26.112 7ZM26.112 8.44906C25.486 8.44906 24.9763 8.95623 24.9763 9.58126C24.9763 10.2053 25.486 10.7144 26.112 10.7144C26.7379 10.7144 27.2476 10.2053 27.2476 9.58126C27.2476 8.95623 26.7379 8.44906 26.112 8.44906Z" fill="#0601B4"/>
<ellipse opacity="0.05" cx="16" cy="17.4102" rx="16" ry="17" fill="#0601B4"/>
</svg>
