<svg width="32" height="29" viewBox="0 0 32 29" fill="none" xmlns="http://www.w3.org/2000/svg">
<path fill-rule="evenodd" clip-rule="evenodd" d="M13.2498 20.778C8.87715 20.778 5.1416 20.2762 5.1416 18.2655C5.1416 16.2547 8.85333 14.4429 13.2498 14.4429C17.6224 14.4429 21.3568 16.2375 21.3568 18.2474C21.3568 20.2572 17.6462 20.778 13.2498 20.778Z" stroke="#0601B4" stroke-linecap="round" stroke-linejoin="round"/>
<path fill-rule="evenodd" clip-rule="evenodd" d="M13.2495 11.5752C16.1193 11.5752 18.4461 9.80855 18.4461 7.62963C18.4461 5.45072 16.1193 3.68408 13.2495 3.68408C10.3796 3.68408 8.05277 5.45072 8.05277 7.62963C8.04209 9.80131 10.3534 11.568 13.2126 11.5752H13.2495Z" stroke="#0601B4" stroke-linecap="round" stroke-linejoin="round"/>
<path d="M21.874 10.4914C23.5447 10.1523 24.776 8.99598 24.776 7.61992C24.7772 6.18418 23.4352 4.98533 21.6514 4.70776" stroke="#0601B4" stroke-linecap="round" stroke-linejoin="round"/>
<path d="M22.6592 13.7234C25.0265 13.7234 27.0485 14.9421 27.0485 16.0298C27.0485 16.6708 26.3519 17.329 25.292 17.518" stroke="#0601B4" stroke-linecap="round" stroke-linejoin="round"/>
<path opacity="0.05" d="M32 14.4102C32 22.1421 24.8366 28.4102 16 28.4102C7.16344 28.4102 0 22.1421 0 14.4102C0 6.67817 7.16344 0.410156 16 0.410156C24.8366 0.410156 32 6.67817 32 14.4102Z" fill="#0601B4"/>
</svg>
