<svg width="8" height="12" viewBox="0 0 8 12" fill="none" xmlns="http://www.w3.org/2000/svg">
<path d="M1.42296 11.6797C1.73316 11.6797 1.98267 11.5781 2.19847 11.375L7.27637 6.71582C7.56634 6.44287 7.69447 6.17627 7.70121 5.83984C7.70121 5.50977 7.56634 5.23047 7.27637 4.96387L2.20521 0.29834C1.98267 0.101562 1.72642 0 1.42296 0C0.80255 0 0.290039 0.469727 0.290039 1.05371C0.290039 1.3457 0.42491 1.6123 0.654191 1.83447L5.05774 5.84619L0.654191 9.84521C0.418167 10.0674 0.290039 10.334 0.290039 10.626C0.290039 11.2036 0.80255 11.6797 1.42296 11.6797Z" fill="#ABABAB"/>
</svg>
