<svg width="9" height="12" viewBox="0 0 9 12" fill="none" xmlns="http://www.w3.org/2000/svg">
<path d="M1.53836 11.1289C1.87321 11.1289 2.14255 11.0321 2.37548 10.8386L7.85683 6.39912C8.16984 6.13904 8.30815 5.88501 8.31543 5.56445C8.31543 5.24994 8.16984 4.98381 7.85683 4.72979L2.38276 0.284271C2.14255 0.0967731 1.86593 0 1.53836 0C0.86866 0 0.31543 0.447576 0.31543 1.00402C0.31543 1.28224 0.461017 1.53627 0.708514 1.74796L5.46193 5.5705L0.708514 9.38094C0.453737 9.59263 0.31543 9.84666 0.31543 10.1249C0.31543 10.6753 0.86866 11.1289 1.53836 11.1289Z" fill="#ABABAB"/>
</svg>
