<svg width="8" height="12" viewBox="0 0 8 12" fill="none" xmlns="http://www.w3.org/2000/svg">
<path d="M1.77814 11.6797C2.07383 11.6797 2.31166 11.5781 2.51736 11.375L7.35762 6.71582C7.63402 6.44287 7.75615 6.17627 7.76258 5.83984C7.76258 5.50977 7.63402 5.23047 7.35762 4.96387L2.52378 0.29834C2.31166 0.101562 2.0674 0 1.77814 0C1.18677 0 0.698242 0.469727 0.698242 1.05371C0.698242 1.3457 0.826802 1.6123 1.04535 1.83447L5.24281 5.84619L1.04535 9.84521C0.820374 10.0674 0.698242 10.334 0.698242 10.626C0.698242 11.2036 1.18677 11.6797 1.77814 11.6797Z" fill="#ABABAB"/>
</svg>
