<svg width="8" height="13" viewBox="0 0 8 13" fill="none" xmlns="http://www.w3.org/2000/svg">
<path d="M1.34252 12.2668C1.65129 12.2668 1.89965 12.1653 2.11445 11.9622L7.16887 7.30298C7.45751 7.03003 7.58504 6.76343 7.59175 6.427C7.59175 6.09692 7.45751 5.81763 7.16887 5.55103L2.12116 0.885498C1.89965 0.688721 1.64458 0.587158 1.34252 0.587158C0.724985 0.587158 0.214844 1.05688 0.214844 1.64087C0.214844 1.93286 0.349091 2.19946 0.577312 2.42163L4.9605 6.43335L0.577312 10.4324C0.342379 10.6545 0.214844 10.9211 0.214844 11.2131C0.214844 11.7908 0.724985 12.2668 1.34252 12.2668Z" fill="#ABABAB"/>
</svg>
