<svg width="8" height="12" viewBox="0 0 8 12" fill="none" xmlns="http://www.w3.org/2000/svg">
<path d="M1.71497 11.6797C2.01074 11.6797 2.24864 11.5781 2.45439 11.375L7.29602 6.71582C7.5725 6.44287 7.69467 6.17627 7.70109 5.83984C7.70109 5.50977 7.5725 5.23047 7.29602 4.96387L2.46082 0.29834C2.24864 0.101562 2.00431 0 1.71497 0C1.12343 0 0.634766 0.469727 0.634766 1.05371C0.634766 1.3457 0.763361 1.6123 0.981974 1.83447L5.18062 5.84619L0.981974 9.84521C0.756931 10.0674 0.634766 10.334 0.634766 10.626C0.634766 11.2036 1.12343 11.6797 1.71497 11.6797Z" fill="#ABABAB"/>
</svg>
