<svg width="8" height="13" viewBox="0 0 8 13" fill="none" xmlns="http://www.w3.org/2000/svg">
<path d="M1.26788 12.7902C1.57092 12.7902 1.81467 12.6869 2.02548 12.4802L6.9861 7.74116C7.26938 7.46353 7.39454 7.19235 7.40113 6.85016C7.40113 6.51442 7.26938 6.23033 6.9861 5.95916L2.03207 1.21361C1.81467 1.01346 1.56434 0.910156 1.26788 0.910156C0.661806 0.910156 0.161133 1.38794 0.161133 1.98194C0.161133 2.27894 0.292889 2.55011 0.516874 2.77609L4.81871 6.85661L0.516874 10.9242C0.286301 11.1502 0.161133 11.4214 0.161133 11.7184C0.161133 12.3059 0.661806 12.7902 1.26788 12.7902Z" fill="#ABABAB"/>
</svg>
